<mxfile host="Electron" modified="2024-02-05T13:44:54.604Z" agent="Mozilla/5.0 (Macintosh; Intel Mac OS X 10_15_7) AppleWebKit/537.36 (KHTML, like Gecko) draw.io/23.0.2 Chrome/120.0.6099.109 Electron/28.1.0 Safari/537.36" etag="voMKic20kkNhMfQaErF4" version="23.0.2" type="device" pages="2">
  <diagram name="main" id="m0zTKrYATkNEm8Ja8VeW">
    <mxGraphModel dx="921" dy="675" grid="1" gridSize="10" guides="1" tooltips="1" connect="1" arrows="1" fold="1" page="1" pageScale="1" pageWidth="850" pageHeight="1100" math="0" shadow="0">
      <root>
        <mxCell id="0" />
        <mxCell id="1" parent="0" />
        <mxCell id="rdsGpB73ZFEg4DAtgRaK-1" style="edgeStyle=orthogonalEdgeStyle;rounded=1;orthogonalLoop=1;jettySize=auto;html=1;exitX=1;exitY=0.5;exitDx=0;exitDy=0;exitPerimeter=0;entryX=0;entryY=0.5;entryDx=0;entryDy=0;entryPerimeter=0;strokeWidth=2;" edge="1" parent="1" source="rdsGpB73ZFEg4DAtgRaK-3" target="rdsGpB73ZFEg4DAtgRaK-6">
          <mxGeometry relative="1" as="geometry" />
        </mxCell>
        <mxCell id="rdsGpB73ZFEg4DAtgRaK-2" style="edgeStyle=orthogonalEdgeStyle;rounded=1;orthogonalLoop=1;jettySize=auto;html=1;exitX=1;exitY=0.5;exitDx=0;exitDy=0;exitPerimeter=0;entryX=0;entryY=0.5;entryDx=0;entryDy=0;entryPerimeter=0;strokeWidth=2;" edge="1" parent="1" source="rdsGpB73ZFEg4DAtgRaK-3" target="rdsGpB73ZFEg4DAtgRaK-12">
          <mxGeometry relative="1" as="geometry" />
        </mxCell>
        <mxCell id="rdsGpB73ZFEg4DAtgRaK-3" value="" style="rhombus;whiteSpace=wrap;html=1;rounded=1;fontStyle=1;glass=0;sketch=0;fontSize=12;points=[[0,0.5,0,0,0],[0.5,0,0,0,0],[0.5,1,0,0,0],[1,0.5,0,0,0]];shadow=1;" vertex="1" parent="1">
          <mxGeometry x="60" y="310" width="40" height="40" as="geometry" />
        </mxCell>
        <mxCell id="rdsGpB73ZFEg4DAtgRaK-4" value="" style="rhombus;whiteSpace=wrap;html=1;rounded=1;fillColor=#0050ef;fontColor=#ffffff;strokeColor=#001DBC;fontStyle=1;glass=0;sketch=0;fontSize=12;points=[[0,0.5,0,0,0],[0.5,0,0,0,0],[0.5,1,0,0,0],[1,0.5,0,0,0]];shadow=1;" vertex="1" parent="1">
          <mxGeometry x="770" y="310" width="40" height="40" as="geometry" />
        </mxCell>
        <mxCell id="rdsGpB73ZFEg4DAtgRaK-5" value="Sleep" style="rounded=1;whiteSpace=wrap;html=1;sketch=0;container=1;recursiveResize=0;verticalAlign=top;arcSize=6;fontStyle=1;autosize=0;points=[];absoluteArcSize=1;shadow=1;strokeColor=#001DBC;fillColor=#0050ef;fontColor=#ffffff;" vertex="1" parent="1">
          <mxGeometry x="247" y="150" width="134" height="87" as="geometry">
            <mxRectangle x="-98" y="-1230" width="99" height="26" as="alternateBounds" />
          </mxGeometry>
        </mxCell>
        <mxCell id="rdsGpB73ZFEg4DAtgRaK-6" value="wait" style="rounded=1;whiteSpace=wrap;html=1;sketch=0;points=[[0,0.5,0,0,0],[1,0.5,0,0,0]];arcSize=50;" vertex="1" parent="rdsGpB73ZFEg4DAtgRaK-5">
          <mxGeometry x="-16.75" y="36" width="66" height="25" as="geometry" />
        </mxCell>
        <mxCell id="rdsGpB73ZFEg4DAtgRaK-7" value="" style="rounded=1;whiteSpace=wrap;html=1;sketch=0;points=[[0,0.5,0,0,0],[1,0.5,0,0,0]];fillColor=#1ba1e2;fontColor=#ffffff;strokeColor=#006EAF;arcSize=50;" vertex="1" parent="rdsGpB73ZFEg4DAtgRaK-5">
          <mxGeometry x="113" y="36" width="35.25" height="25" as="geometry" />
        </mxCell>
        <mxCell id="rdsGpB73ZFEg4DAtgRaK-8" value="Echo" style="rounded=1;whiteSpace=wrap;html=1;sketch=0;container=1;recursiveResize=0;verticalAlign=top;arcSize=6;fontStyle=1;autosize=0;points=[];absoluteArcSize=1;shadow=1;strokeColor=#001DBC;fillColor=#0050ef;fontColor=#ffffff;" vertex="1" parent="1">
          <mxGeometry x="469.25" y="150" width="134" height="87" as="geometry">
            <mxRectangle x="-98" y="-1230" width="99" height="26" as="alternateBounds" />
          </mxGeometry>
        </mxCell>
        <mxCell id="rdsGpB73ZFEg4DAtgRaK-9" value="" style="rounded=1;whiteSpace=wrap;html=1;sketch=0;points=[[0,0.5,0,0,0],[1,0.5,0,0,0]];arcSize=50;" vertex="1" parent="rdsGpB73ZFEg4DAtgRaK-8">
          <mxGeometry x="-9.25" y="36" width="39.25" height="25" as="geometry" />
        </mxCell>
        <mxCell id="rdsGpB73ZFEg4DAtgRaK-10" value="" style="rounded=1;whiteSpace=wrap;html=1;sketch=0;points=[[0,0.5,0,0,0],[1,0.5,0,0,0]];fillColor=#1ba1e2;fontColor=#ffffff;strokeColor=#006EAF;arcSize=50;" vertex="1" parent="rdsGpB73ZFEg4DAtgRaK-8">
          <mxGeometry x="110.75" y="36" width="35.25" height="25" as="geometry" />
        </mxCell>
        <mxCell id="rdsGpB73ZFEg4DAtgRaK-11" value="Echo" style="rounded=1;whiteSpace=wrap;html=1;sketch=0;container=1;recursiveResize=0;verticalAlign=top;arcSize=6;fontStyle=1;autosize=0;points=[];absoluteArcSize=1;shadow=1;strokeColor=#001DBC;fillColor=#0050ef;fontColor=#ffffff;" vertex="1" parent="1">
          <mxGeometry x="348" y="360" width="134" height="87" as="geometry">
            <mxRectangle x="-98" y="-1230" width="99" height="26" as="alternateBounds" />
          </mxGeometry>
        </mxCell>
        <mxCell id="rdsGpB73ZFEg4DAtgRaK-12" value="" style="rounded=1;whiteSpace=wrap;html=1;sketch=0;points=[[0,0.5,0,0,0],[1,0.5,0,0,0]];arcSize=50;" vertex="1" parent="rdsGpB73ZFEg4DAtgRaK-11">
          <mxGeometry x="-8" y="36" width="39.25" height="25" as="geometry" />
        </mxCell>
        <mxCell id="rdsGpB73ZFEg4DAtgRaK-13" value="" style="rounded=1;whiteSpace=wrap;html=1;sketch=0;points=[[0,0.5,0,0,0],[1,0.5,0,0,0]];fillColor=#1ba1e2;fontColor=#ffffff;strokeColor=#006EAF;arcSize=50;" vertex="1" parent="rdsGpB73ZFEg4DAtgRaK-11">
          <mxGeometry x="112" y="36" width="35.25" height="25" as="geometry" />
        </mxCell>
        <mxCell id="rdsGpB73ZFEg4DAtgRaK-14" style="edgeStyle=orthogonalEdgeStyle;rounded=1;orthogonalLoop=1;jettySize=auto;html=1;exitX=1;exitY=0.5;exitDx=0;exitDy=0;exitPerimeter=0;entryX=0;entryY=0.5;entryDx=0;entryDy=0;entryPerimeter=0;strokeWidth=2;" edge="1" parent="1" source="rdsGpB73ZFEg4DAtgRaK-7" target="rdsGpB73ZFEg4DAtgRaK-9">
          <mxGeometry relative="1" as="geometry" />
        </mxCell>
        <mxCell id="rdsGpB73ZFEg4DAtgRaK-15" style="edgeStyle=orthogonalEdgeStyle;rounded=1;orthogonalLoop=1;jettySize=auto;html=1;exitX=1;exitY=0.5;exitDx=0;exitDy=0;exitPerimeter=0;entryX=0;entryY=0.5;entryDx=0;entryDy=0;entryPerimeter=0;strokeWidth=2;" edge="1" parent="1" source="rdsGpB73ZFEg4DAtgRaK-10" target="rdsGpB73ZFEg4DAtgRaK-4">
          <mxGeometry relative="1" as="geometry" />
        </mxCell>
        <mxCell id="rdsGpB73ZFEg4DAtgRaK-16" style="edgeStyle=orthogonalEdgeStyle;rounded=1;orthogonalLoop=1;jettySize=auto;html=1;exitX=1;exitY=0.5;exitDx=0;exitDy=0;exitPerimeter=0;entryX=0;entryY=0.5;entryDx=0;entryDy=0;entryPerimeter=0;strokeWidth=2;" edge="1" parent="1" source="rdsGpB73ZFEg4DAtgRaK-13" target="rdsGpB73ZFEg4DAtgRaK-4">
          <mxGeometry relative="1" as="geometry" />
        </mxCell>
        <mxCell id="rdsGpB73ZFEg4DAtgRaK-17" value="&lt;b&gt;&lt;font style=&quot;font-size: 24px;&quot;&gt;Delay&lt;/font&gt;&lt;/b&gt;" style="text;html=1;align=center;verticalAlign=middle;resizable=0;points=[];autosize=1;strokeColor=none;fillColor=none;" vertex="1" parent="1">
          <mxGeometry x="39" y="80" width="82" height="41" as="geometry" />
        </mxCell>
        <mxCell id="rdsGpB73ZFEg4DAtgRaK-18" value="?A" style="rounded=1;whiteSpace=wrap;html=1;sketch=0;container=1;recursiveResize=0;verticalAlign=bottom;arcSize=0;fontStyle=0;autosize=0;points=[];absoluteArcSize=1;shadow=0;strokeColor=#d79b00;fillColor=#FFFFFF;fontFamily=Helvetica;fontSize=11;dashed=1;opacity=30;align=right;textOpacity=30;gradientColor=#EA6B66;fontColor=default;" vertex="1" parent="1">
          <mxGeometry x="560" y="440" width="40" height="50" as="geometry">
            <mxRectangle x="-98" y="-1230" width="99" height="26" as="alternateBounds" />
          </mxGeometry>
        </mxCell>
        <mxCell id="rdsGpB73ZFEg4DAtgRaK-19" value="" style="rounded=1;whiteSpace=wrap;html=1;sketch=0;points=[[0,0.5,0,0,0],[1,0.5,0,0,0]];arcSize=50;fontFamily=Helvetica;fontSize=11;fontColor=default;dashed=1;textOpacity=50;opacity=30;fontStyle=0" vertex="1" parent="rdsGpB73ZFEg4DAtgRaK-18">
          <mxGeometry x="-12" y="12.5" width="39.25" height="25" as="geometry" />
        </mxCell>
        <mxCell id="rdsGpB73ZFEg4DAtgRaK-20" style="edgeStyle=orthogonalEdgeStyle;rounded=1;orthogonalLoop=1;jettySize=auto;html=1;exitX=1;exitY=0.5;exitDx=0;exitDy=0;exitPerimeter=0;entryX=0;entryY=0.5;entryDx=0;entryDy=0;entryPerimeter=0;curved=0;" edge="1" parent="1" source="rdsGpB73ZFEg4DAtgRaK-13" target="rdsGpB73ZFEg4DAtgRaK-19">
          <mxGeometry relative="1" as="geometry" />
        </mxCell>
        <mxCell id="rdsGpB73ZFEg4DAtgRaK-21" value="?B" style="rounded=1;whiteSpace=wrap;html=1;sketch=0;container=1;recursiveResize=0;verticalAlign=bottom;arcSize=6;fontStyle=0;autosize=0;points=[];absoluteArcSize=1;shadow=0;strokeColor=#d79b00;fillColor=#FFFFFF;fontFamily=Helvetica;fontSize=11;dashed=1;opacity=30;align=right;textOpacity=30;gradientColor=#EA6B66;fontColor=default;" vertex="1" parent="1">
          <mxGeometry x="680" y="120" width="40" height="50" as="geometry">
            <mxRectangle x="-98" y="-1230" width="99" height="26" as="alternateBounds" />
          </mxGeometry>
        </mxCell>
        <mxCell id="rdsGpB73ZFEg4DAtgRaK-22" value="" style="rounded=1;whiteSpace=wrap;html=1;sketch=0;points=[[0,0.5,0,0,0],[1,0.5,0,0,0]];arcSize=50;fontFamily=Helvetica;fontSize=11;fontColor=default;dashed=1;textOpacity=50;opacity=30;fontStyle=0" vertex="1" parent="rdsGpB73ZFEg4DAtgRaK-21">
          <mxGeometry x="-12" y="12.5" width="39.25" height="25" as="geometry" />
        </mxCell>
        <mxCell id="rdsGpB73ZFEg4DAtgRaK-23" style="edgeStyle=orthogonalEdgeStyle;rounded=1;orthogonalLoop=1;jettySize=auto;html=1;exitX=1;exitY=0.5;exitDx=0;exitDy=0;exitPerimeter=0;entryX=0;entryY=0.5;entryDx=0;entryDy=0;entryPerimeter=0;curved=0;" edge="1" parent="1" source="rdsGpB73ZFEg4DAtgRaK-10" target="rdsGpB73ZFEg4DAtgRaK-22">
          <mxGeometry relative="1" as="geometry" />
        </mxCell>
      </root>
    </mxGraphModel>
  </diagram>
  <diagram id="tdX2_95LEIDNDVLNdQ2E" name="...">
    <mxGraphModel dx="1114" dy="693" grid="1" gridSize="10" guides="1" tooltips="1" connect="1" arrows="1" fold="1" page="1" pageScale="1" pageWidth="850" pageHeight="1100" math="0" shadow="0">
      <root>
        <mxCell id="0" />
        <mxCell id="1" parent="0" />
      </root>
    </mxGraphModel>
  </diagram>
</mxfile>
